<svg xmlns="http://www.w3.org/2000/svg" width="250" height="139.637" viewBox="0 0 426.966 527.688"><g fill="#fff"><path d="M161.85 269.508L174.865 242l2.07-4.141 36.974-77.2 36.678 77.2 2.07 4.141 13.015 27.508H161.85zm126.894 20.706h9.76l-77.496-162.389H206.81l-77.496 162.389h159.725z"/><g clip-path="url(#clipPath3373)" transform="matrix(2.95789 0 0 -2.95789 -541.272 655.334)"><path d="M168.548 135.542c-.5-1-1.2-1.9-2.2-2.7-1-.8-2.3-1.4-3.8-1.9-1.6-.5-3.3-.7-5.3-.7h-19.5v-6.8h19.4c2.8 0 5.4.4 7.7 1.1 2.3.8 4.4 1.8 6.1 3.2 1.7 1.4 3.1 3.1 4 5 .9 1.9 1.4 4 1.4 6.2v.1c0 2-.3 3.9-1 5.5-.7 1.7-1.9 3.3-3.6 4.6-1.5 1.2-3.5 2.3-5.9 3.2-2.2.9-5 1.6-8.3 2.3-2.8.6-5.2 1.2-7 1.9-1.7.6-3.1 1.3-4.1 2-.8.6-1.4 1.3-1.7 2-.3.8-.5 1.7-.5 2.8v.1c0 1 .2 1.9.7 2.9.5 1 1.2 1.8 2.2 2.6 1 .8 2.2 1.5 3.6 2s3.1.8 4.9.8h20.4v6.8h-20.2c-2.6 0-5-.4-7.2-1.1-2.2-.7-4.1-1.8-5.8-3.1-1.7-1.3-3-3-4-4.8-1-1.9-1.5-3.9-1.5-6v-.1c0-2.1.4-4 1.1-5.6.8-1.7 2-3.2 3.7-4.5 1.5-1.2 3.5-2.2 5.8-3 2.2-.8 4.9-1.5 8-2.1 2.9-.6 5.3-1.3 7.3-1.9 1.8-.6 3.1-1.3 4.1-2 .5-1 1.1-1.7 1.4-2.5.4-.8.6-1.8.6-2.8v-.1c0-1.3-.3-2.4-.8-3.4m51.886 25.087c0-3.5-1.2-6.1-3.6-7.9-2.6-1.9-6.5-2.9-11.4-2.9h-12.8v21.6h12.9c4.9 0 8.7-1 11.3-3 2.4-1.8 3.6-4.3 3.6-7.7v-.1zm7.1.2c0 5.5-2 9.9-6 13.1-3.8 3-9.1 4.5-15.8 4.5h-20.2v-55h7.1v19.4h12.8c6.6 0 11.9 1.5 15.8 4.5 4.2 3.2 6.3 7.7 6.3 13.3v.1zm145.256 10.653v7h-40.1v-55h40.5v7h-33.3v17.2h29.1v7h-29.1v16.9l32.9-.1zm-67.1-.058h17.2v7h-17.2c-15.2 0-27.5-12.3-27.5-27.5s12.3-27.5 27.5-27.5h17.2v7h-17.2c-11.3 0-20.5 9.2-20.5 20.5s9.2 20.5 20.5 20.5"/><path d="M95.467 221.555v-141.7h127v7h-120v127.7h305.3v-127.7h-125l-51.3-38.1 4.2-5.6 49.5 36.7h129.7l-.1 141.7h-319.3z"/></g></g></svg>